<svg width="150" height="42" viewBox="0 0 150 42" fill="none" xmlns="http://www.w3.org/2000/svg">
<g clip-path="url(#clip0_20703_52)">
<path d="M129 0H21C9.40202 0 0 9.40202 0 21C0 32.598 9.40202 42 21 42H129C140.598 42 150 32.598 150 21C150 9.40202 140.598 0 129 0Z" fill="#9953F1"/>
<path d="M62.3262 24.9268V26H54.793V24.9268H62.3262ZM55.0049 24.9268V28.4473H53.6992L53.6924 24.9268H55.0049ZM63.4746 24.9268L63.4609 28.4404H62.1553V24.9268H63.4746ZM61.0342 16.0469V17.127H56.6729V16.0469H61.0342ZM62.1689 16.0469V26H60.8564V16.0469H62.1689ZM56.2217 16.0469H57.541L57.3359 20.0527C57.3086 20.6543 57.2516 21.2103 57.165 21.7207C57.0785 22.2266 56.9714 22.6891 56.8438 23.1084C56.7161 23.5277 56.5703 23.9036 56.4062 24.2363C56.2422 24.5645 56.0667 24.8493 55.8799 25.0908C55.693 25.3278 55.4971 25.5238 55.292 25.6787C55.0915 25.8291 54.8887 25.9362 54.6836 26H54.082V24.9268H54.5059C54.6243 24.7992 54.7588 24.6146 54.9092 24.373C55.0641 24.1315 55.2168 23.8193 55.3672 23.4365C55.5221 23.0492 55.6566 22.5775 55.7705 22.0215C55.889 21.4655 55.9688 20.8092 56.0098 20.0527L56.2217 16.0469ZM64.5 22.3838V22.2266C64.5 21.6934 64.5775 21.1989 64.7324 20.7432C64.8874 20.2829 65.1107 19.8841 65.4023 19.5469C65.694 19.2051 66.0472 18.9408 66.4619 18.7539C66.8766 18.5625 67.3415 18.4668 67.8564 18.4668C68.376 18.4668 68.8431 18.5625 69.2578 18.7539C69.6771 18.9408 70.0326 19.2051 70.3242 19.5469C70.6204 19.8841 70.846 20.2829 71.001 20.7432C71.1559 21.1989 71.2334 21.6934 71.2334 22.2266V22.3838C71.2334 22.917 71.1559 23.4115 71.001 23.8672C70.846 24.3229 70.6204 24.7217 70.3242 25.0635C70.0326 25.4007 69.6794 25.665 69.2646 25.8564C68.8545 26.0433 68.3896 26.1367 67.8701 26.1367C67.3506 26.1367 66.8835 26.0433 66.4688 25.8564C66.054 25.665 65.6986 25.4007 65.4023 25.0635C65.1107 24.7217 64.8874 24.3229 64.7324 23.8672C64.5775 23.4115 64.5 22.917 64.5 22.3838ZM65.7646 22.2266V22.3838C65.7646 22.7529 65.8079 23.1016 65.8945 23.4297C65.9811 23.7533 66.111 24.0404 66.2842 24.291C66.4619 24.5417 66.6829 24.7399 66.9473 24.8857C67.2116 25.027 67.5192 25.0977 67.8701 25.0977C68.2165 25.0977 68.5195 25.027 68.7793 24.8857C69.0436 24.7399 69.2624 24.5417 69.4355 24.291C69.6087 24.0404 69.7386 23.7533 69.8252 23.4297C69.9163 23.1016 69.9619 22.7529 69.9619 22.3838V22.2266C69.9619 21.862 69.9163 21.5179 69.8252 21.1943C69.7386 20.8662 69.6064 20.5768 69.4287 20.3262C69.2555 20.071 69.0368 19.8704 68.7725 19.7246C68.5127 19.5788 68.2074 19.5059 67.8564 19.5059C67.5101 19.5059 67.2048 19.5788 66.9404 19.7246C66.6807 19.8704 66.4619 20.071 66.2842 20.3262C66.111 20.5768 65.9811 20.8662 65.8945 21.1943C65.8079 21.5179 65.7646 21.862 65.7646 22.2266ZM77.5635 15.3838H78.6025C78.6025 15.8304 78.5342 16.1859 78.3975 16.4502C78.2607 16.71 78.0739 16.9105 77.8369 17.0518C77.6045 17.193 77.3402 17.3001 77.0439 17.373C76.7523 17.446 76.4492 17.5166 76.1348 17.585C75.7428 17.667 75.3783 17.7969 75.041 17.9746C74.7083 18.1478 74.4212 18.3939 74.1797 18.7129C73.9427 19.0319 73.7673 19.4466 73.6533 19.957C73.5439 20.4674 73.5143 21.0986 73.5645 21.8506V22.4795H72.5254V21.8506C72.5254 21.0075 72.6051 20.2715 72.7646 19.6426C72.9287 19.0137 73.1589 18.4827 73.4551 18.0498C73.7513 17.6169 74.1022 17.2728 74.5078 17.0176C74.918 16.7624 75.3691 16.5869 75.8613 16.4912C76.2168 16.4229 76.5221 16.3499 76.7773 16.2725C77.0326 16.1904 77.2262 16.0811 77.3584 15.9443C77.4951 15.8076 77.5635 15.6208 77.5635 15.3838ZM76.0664 19.0273C76.5495 19.0273 76.9801 19.1117 77.3584 19.2803C77.7367 19.4489 78.0579 19.6836 78.3223 19.9844C78.5866 20.2852 78.7871 20.6406 78.9238 21.0508C79.0651 21.4564 79.1357 21.8984 79.1357 22.377V22.5273C79.1357 23.0423 79.0605 23.5208 78.9102 23.9629C78.7643 24.4004 78.5479 24.7832 78.2607 25.1113C77.9782 25.4349 77.6318 25.6878 77.2217 25.8701C76.8161 26.0524 76.3535 26.1436 75.834 26.1436C75.3145 26.1436 74.8496 26.0524 74.4395 25.8701C74.0339 25.6878 73.6875 25.4349 73.4004 25.1113C73.1133 24.7832 72.8945 24.4004 72.7441 23.9629C72.5983 23.5208 72.5254 23.0423 72.5254 22.5273V22.377C72.5254 22.263 72.5459 22.1514 72.5869 22.042C72.6279 21.9326 72.6781 21.821 72.7373 21.707C72.8011 21.5931 72.8581 21.4723 72.9082 21.3447C73.0768 20.9346 73.307 20.554 73.5986 20.2031C73.8949 19.8522 74.248 19.5697 74.6582 19.3555C75.0729 19.1367 75.5423 19.0273 76.0664 19.0273ZM75.8203 20.0596C75.3555 20.0596 74.9727 20.1667 74.6719 20.3809C74.3757 20.5951 74.1546 20.8799 74.0088 21.2354C73.863 21.5863 73.79 21.9668 73.79 22.377V22.5273C73.79 22.8737 73.8311 23.2018 73.9131 23.5117C73.9951 23.8216 74.1182 24.0973 74.2822 24.3389C74.4508 24.5758 74.6628 24.7627 74.918 24.8994C75.1777 25.0361 75.4831 25.1045 75.834 25.1045C76.1849 25.1045 76.488 25.0361 76.7432 24.8994C76.9984 24.7627 77.208 24.5758 77.3721 24.3389C77.5361 24.0973 77.6592 23.8216 77.7412 23.5117C77.8232 23.2018 77.8643 22.8737 77.8643 22.5273V22.377C77.8643 22.0671 77.8232 21.7731 77.7412 21.4951C77.6592 21.2171 77.5339 20.971 77.3652 20.7568C77.2012 20.5426 76.9893 20.374 76.7295 20.251C76.4743 20.1234 76.1712 20.0596 75.8203 20.0596ZM84.9326 24.7354V20.9277C84.9326 20.6361 84.8734 20.3831 84.7549 20.1689C84.641 19.9502 84.4678 19.7816 84.2354 19.6631C84.0029 19.5446 83.7158 19.4854 83.374 19.4854C83.055 19.4854 82.7747 19.54 82.5332 19.6494C82.2962 19.7588 82.1094 19.9023 81.9727 20.0801C81.8405 20.2578 81.7744 20.4492 81.7744 20.6543H80.5098C80.5098 20.39 80.5781 20.1279 80.7148 19.8682C80.8516 19.6084 81.0475 19.3737 81.3027 19.1641C81.5625 18.9499 81.8724 18.7812 82.2324 18.6582C82.597 18.5306 83.0026 18.4668 83.4492 18.4668C83.987 18.4668 84.4609 18.5579 84.8711 18.7402C85.2858 18.9225 85.6094 19.1982 85.8418 19.5674C86.0788 19.932 86.1973 20.39 86.1973 20.9414V24.3867C86.1973 24.6328 86.2178 24.8949 86.2588 25.1729C86.3044 25.4508 86.3704 25.6901 86.457 25.8906V26H85.1377C85.0739 25.8542 85.0238 25.6605 84.9873 25.4189C84.9508 25.1729 84.9326 24.945 84.9326 24.7354ZM85.1514 21.5156L85.165 22.4043H83.8867C83.5267 22.4043 83.2054 22.4339 82.9229 22.4932C82.6403 22.5479 82.4033 22.6322 82.2119 22.7461C82.0205 22.86 81.8747 23.0036 81.7744 23.1768C81.6742 23.3454 81.624 23.5436 81.624 23.7715C81.624 24.0039 81.6764 24.2158 81.7812 24.4072C81.8861 24.5986 82.0433 24.7513 82.2529 24.8652C82.4671 24.9746 82.7292 25.0293 83.0391 25.0293C83.4264 25.0293 83.7682 24.9473 84.0645 24.7832C84.3607 24.6191 84.5954 24.4186 84.7686 24.1816C84.9463 23.9447 85.042 23.7145 85.0557 23.4912L85.5957 24.0996C85.5638 24.291 85.4772 24.5029 85.3359 24.7354C85.1947 24.9678 85.0055 25.1911 84.7686 25.4053C84.5361 25.6149 84.2581 25.7904 83.9346 25.9316C83.6156 26.0684 83.2555 26.1367 82.8545 26.1367C82.3532 26.1367 81.9134 26.0387 81.5352 25.8428C81.1615 25.6468 80.8698 25.3848 80.6602 25.0566C80.4551 24.724 80.3525 24.3525 80.3525 23.9424C80.3525 23.5459 80.43 23.1973 80.585 22.8965C80.7399 22.5911 80.9632 22.3382 81.2549 22.1377C81.5465 21.9326 81.8975 21.7777 82.3076 21.6729C82.7178 21.568 83.1758 21.5156 83.6816 21.5156H85.1514ZM91.6592 22.7461H89.2324L89.2188 21.7344H91.2012C91.5931 21.7344 91.9189 21.6956 92.1787 21.6182C92.443 21.5407 92.6413 21.4245 92.7734 21.2695C92.9056 21.1146 92.9717 20.9232 92.9717 20.6953C92.9717 20.5176 92.9329 20.3626 92.8555 20.2305C92.7826 20.0938 92.6709 19.9821 92.5205 19.8955C92.3701 19.8044 92.1833 19.7383 91.96 19.6973C91.7412 19.6517 91.4837 19.6289 91.1875 19.6289H89.5674V26H88.3027V18.6035H91.1875C91.6569 18.6035 92.0785 18.6445 92.4521 18.7266C92.8304 18.8086 93.1517 18.9339 93.416 19.1025C93.6849 19.2666 93.89 19.4762 94.0312 19.7314C94.1725 19.9867 94.2432 20.2874 94.2432 20.6338C94.2432 20.8571 94.1976 21.069 94.1064 21.2695C94.0153 21.4701 93.8809 21.6478 93.7031 21.8027C93.5254 21.9577 93.3066 22.0853 93.0469 22.1855C92.7871 22.2812 92.4886 22.3428 92.1514 22.3701L91.6592 22.7461ZM91.6592 26H88.7744L89.4033 24.9746H91.6592C92.0101 24.9746 92.3018 24.9313 92.5342 24.8447C92.7666 24.7536 92.9398 24.626 93.0537 24.4619C93.1722 24.2933 93.2314 24.0928 93.2314 23.8604C93.2314 23.6279 93.1722 23.4297 93.0537 23.2656C92.9398 23.097 92.7666 22.9694 92.5342 22.8828C92.3018 22.7917 92.0101 22.7461 91.6592 22.7461H89.7383L89.752 21.7344H92.1514L92.6094 22.1172C93.015 22.1491 93.359 22.2493 93.6416 22.418C93.9242 22.5866 94.1383 22.8008 94.2842 23.0605C94.43 23.3158 94.5029 23.5938 94.5029 23.8945C94.5029 24.2409 94.4368 24.5462 94.3047 24.8105C94.1771 25.0749 93.9902 25.2959 93.7441 25.4736C93.498 25.6468 93.1995 25.779 92.8486 25.8701C92.4977 25.9567 92.1012 26 91.6592 26ZM97.5654 23.9971L100.977 18.6035H102.248V26H100.977V20.6064L97.5654 26H96.3076V18.6035H97.5654V23.9971ZM107.293 18.6035V26H106.021V18.6035H107.293ZM109.774 18.6035V19.6289H103.588V18.6035H109.774ZM112.058 21.1465H114.279C114.876 21.1465 115.38 21.2513 115.79 21.4609C116.2 21.666 116.51 21.9508 116.72 22.3154C116.934 22.6755 117.041 23.0856 117.041 23.5459C117.041 23.8877 116.982 24.209 116.863 24.5098C116.745 24.806 116.567 25.0658 116.33 25.2891C116.098 25.5124 115.808 25.6878 115.462 25.8154C115.12 25.9385 114.726 26 114.279 26H111.135V18.6035H112.399V24.9609H114.279C114.644 24.9609 114.936 24.8949 115.154 24.7627C115.373 24.6305 115.53 24.4596 115.626 24.25C115.722 24.0404 115.77 23.8216 115.77 23.5938C115.77 23.3704 115.722 23.1517 115.626 22.9375C115.53 22.7233 115.373 22.5456 115.154 22.4043C114.936 22.2585 114.644 22.1855 114.279 22.1855H112.058V21.1465Z" fill="white"/>
<path d="M42 21C42 9.40202 32.598 0 21 0C9.40202 0 0 9.40202 0 21C0 32.598 9.40202 42 21 42C32.598 42 42 32.598 42 21Z" fill="#AA68FE"/>
<path d="M21.6084 20.6611H24.3838V21.8574H21.6084V25.002H20.3369V21.8574H17.5615V20.6611H20.3369V17.7559H21.6084V20.6611Z" fill="white"/>
</g>
<defs>
<clipPath id="clip0_20703_52">
<rect width="150" height="42" fill="white"/>
</clipPath>
</defs>
</svg>
